:SAMPLES-PER-SECOND 30
:FRAME-RANGE 1-4244
:FULLY-SPECIFIED
:DEGREES
2520
root  57.2694 38.9853 -4.69927 176.936 -0.936737 -177.715
RightUpLeg  -22.9295 0.0666124 -7.23288
RightLeg  42.5855 -10.7233 -10.6529
RightFoot  3.00206 -1.65287 13.246
RightToes  -3.31784e-009 0 -3.6325e-017
Spine  12.8308 -1.76605 -1.05055
Spine1  2.70871 -1.56812 -2.68652
HEad  -12.1437 35.7058 -15.401
LeftShoulder1  2.22653 -2.75755 -29.5142
LeftArm  35.1508 -19.864 -54.747
LeftForeArm  8.70122 -11.641 -14.6675
LeftHand  0.00670373 -1.80308 0.0500524
RightShoulder  8.09806 13.5728 41.2284
RightArm  20.9121 0.645532 17.9795
RightForeArm  8.66451 9.86441 14.4261
RightHand  0.0288957 4.65813 0.0409361
LeftUpLeg  3.26021 0.377074 -8.19598
LeftLeg  16.305 -4.54949 -0.331329
LeftFoot  -14.4903 0.362711 9.99107
LeftToes  1.0277e-010 -6.71454e-011 3.04227e-011
2521
root  57.5828 39.0174 -5.94712 177.159 -3.56116 -177.166
RightUpLeg  -21.2811 -0.228122 -6.81234
RightLeg  27.12 -13.7928 -7.76636
RightFoot  4.73392 -2.1197 15.1615
RightToes  -3.31784e-009 0 -3.6325e-017
Spine  12.1549 -1.96857 -1.16036
Spine1  2.56063 -1.77966 -2.04514
HEad  -12.2931 35.3669 -15.3424
LeftShoulder1  2.23065 -2.76165 -29.5575
LeftArm  44.8533 -21.0176 -58.291
LeftForeArm  4.66768 -16.9229 -10.5944
LeftHand  0.0168738 -2.59509 -0.0405972
RightShoulder  7.95434 12.9743 42.032
RightArm  21.4023 -0.169965 17.7787
RightForeArm  8.27276 9.04261 14.9834
RightHand  0.0716705 4.46773 0.557256
LeftUpLeg  5.83725 0.783396 -6.61116
LeftLeg  14.9758 -7.7777 -0.797745
LeftFoot  -15.3018 0.446276 10.2106
LeftToes  1.0277e-010 -6.71454e-011 3.04227e-011
2522
root  57.8797 38.9337 -7.25873 177.274 -5.75266 -176.647
RightUpLeg  -18.6609 -3.01962 -5.23749
RightLeg  11.061 -14.2714 -3.5713
RightFoot  4.34805 -2.29729 16.7819
RightToes  -3.31784e-009 0 -3.6325e-017
Spine  11.688 -2.1252 -0.968238
Spine1  2.43439 -1.90086 -1.65811
HEad  -12.7151 35.2413 -15.7586
LeftShoulder1  2.2216 -2.76043 -29.4175
LeftArm  50.2125 -21.4203 -60.8489
LeftForeArm  1.78852 -20.7777 -6.71163
LeftHand  0.0216764 -2.83244 -0.0891631
RightShoulder  7.86738 12.5267 42.787
RightArm  19.4916 -0.891813 17.8233
RightForeArm  10.2814 7.38614 15.6024
RightHand  0.114527 4.52639 1.05144
LeftUpLeg  8.06877 0.660976 -5.09219
LeftLeg  14.6264 -9.84597 -1.06856
LeftFoot  -16.7739 0.5933 10.3439
LeftToes  1.0277e-010 -6.71454e-011 3.04227e-011
2523
root  58.1738 38.7578 -8.62564 177.022 -7.22748 -176.048
RightUpLeg  -16.5855 -4.36098 -3.90596
RightLeg  -0.0260445 -11.8899 1.65359
RightFoot  3.06988 -2.09737 16.6492
RightToes  -3.31784e-009 0 -3.6325e-017
Spine  11.67 -2.07142 -0.465025
Spine1  2.40563 -1.80632 -1.32018
HEad  -13.521 35.3544 -16.8169
LeftShoulder1  2.20972 -2.73647 -29.362
LeftArm  49.574 -21.4974 -62.0751
LeftForeArm  2.99084 -23.3481 -4.91216
LeftHand  0.012193 -3.02836 0.0586989
RightShoulder  7.87777 12.3164 43.4539
RightArm  18.7454 -1.61008 17.9378
RightForeArm  11.2726 6.39382 15.9577
RightHand  0.158511 4.60622 1.54817
LeftUpLeg  10.2925 -0.445872 -3.66353
LeftLeg  15.1651 -10.4136 -1.39286
LeftFoot  -18.7164 0.743948 9.76757
LeftToes  1.0277e-010 -6.71454e-011 3.04227e-011
2524
root  58.5154 38.3981 -10.1091 176.68 -7.97986 -175.988
RightUpLeg  -14.8624 -4.35296 -2.73481
RightLeg  -5.36491 -9.57888 4.22804
RightFoot  2.79063 -2.76124 22.1746
RightToes  -3.31784e-009 0 -3.6325e-017
Spine  11.4988 -1.78891 -0.796641
Spine1  2.46527 -1.48138 -1.25766
HEad  -14.6928 36.0237 -18.5098
LeftShoulder1  2.15132 -2.59882 -29.1995
LeftArm  45.2362 -21.2997 -61.8538
LeftForeArm  6.41786 -25.4417 -5.11661
LeftHand  0.0367576 -3.24006 -0.258382
RightShoulder  8.07328 12.4414 44.2222
RightArm  20.523 -2.06245 18.0998
RightForeArm  9.94883 6.40139 16.1821
RightHand  0.19869 4.505 2.04139
LeftUpLeg  11.8109 -2.69683 -3.1322
LeftLeg  17.8766 -8.85391 -2.04962
LeftFoot  -21.1883 0.858833 8.47139
LeftToes  1.0277e-010 -6.71454e-011 3.04227e-011
2525
root  58.7667 38.2358 -11.52 176.717 -8.33472 -175.571
RightUpLeg  -14.8944 -3.24658 -0.564493
RightLeg  -3.86214 -7.18609 4.00397
RightFoot  5.52796 -2.6073 17.712
RightToes  -3.31784e-009 0 -3.6325e-017
Spine  11.3562 -1.61722 0.466687
Spine1  2.94541 -1.18918 -1.36958
HEad  -15.521 37.7993 -20.6182
LeftShoulder1  2.06496 -2.35635 -29.1816
LeftArm  41.8833 -20.5834 -60.0576
LeftForeArm  7.75041 -26.9787 -5.39389
LeftHand  0.0172186 -3.20295 0.00228065
RightShoulder  8.39019 12.7882 45.0121
RightArm  20.183 -2.17969 18.3517
RightForeArm  11.4892 5.44736 16.4822
RightHand  0.252588 4.67993 2.6151
LeftUpLeg  12.817 -4.73803 -2.40483
LeftLeg  20.1553 -7.20046 -2.58987
LeftFoot  -21.8025 0.677963 5.9669
LeftToes  1.0277e-010 -6.71454e-011 3.04227e-011
2526
root  58.9486 38.0738 -12.8868 176.563 -9.33063 -174.688
RightUpLeg  -16.6158 -3.41185 1.06961
RightLeg  1.45396 -5.13011 3.94181
RightFoot  13.8155 -1.93133 9.06933
RightToes  -3.31784e-009 0 -3.6325e-017
Spine  11.933 -1.93823 3.25426
Spine1  2.83992 -1.05634 -1.73709
HEad  -15.9771 40.5269 -23.2412
LeftShoulder1  1.96252 -1.98756 -29.688
LeftArm  39.945 -19.4176 -56.9748
LeftForeArm  7.07817 -27.5766 -5.5685
LeftHand  0.0403452 -3.28673 -0.301674
RightShoulder  8.35693 12.5887 45.4065
RightArm  20.3663 -2.35369 18.9248
RightForeArm  12.8733 5.1801 16.5119
RightHand  0.29426 4.91805 3.00809
LeftUpLeg  12.0159 -4.6676 -0.495575
LeftLeg  25.8294 -7.51662 -3.61622
LeftFoot  -21.4463 0.325706 2.22673
LeftToes  1.0277e-010 -6.71454e-011 3.04227e-011
2527
root  59.1112 37.9022 -14.1878 175.529 -10.4806 -171.861
RightUpLeg  -18.5041 -2.69936 3.86489
RightLeg  10.4208 -7.02216 3.53514
RightFoot  8.93493 -0.948996 5.64687
RightToes  -3.31784e-009 0 -3.6325e-017
Spine  13.7174 -2.53889 8.21946
Spine1  2.30311 -0.755373 -2.34028
HEad  -17.5575 44.0076 -27.4066
LeftShoulder1  1.91843 -1.64812 -31.2008
LeftArm  40.0356 -18.837 -53.5014
LeftForeArm  3.43349 -26.0312 -5.40707
LeftHand  0.042195 -2.96501 -0.363491
RightShoulder  8.31086 12.3374 45.8916
RightArm  21.2079 -2.0125 19.0821
RightForeArm  12.2465 5.73985 16.4082
RightHand  0.322328 4.9893 3.29621
LeftUpLeg  8.42841 -2.36666 4.94436
LeftLeg  36.9611 -7.9172 -5.99707
LeftFoot  -17.9839 -0.166821 -4.72954
LeftToes  1.0277e-010 -6.71454e-011 3.04227e-011
2528
root  59.3102 37.7749 -15.3944 174.943 -12.7074 -169.614
RightUpLeg  -19.1604 -4.32318 6.38061
RightLeg  15.8948 -7.24983 2.82835
RightFoot  4.34149 -0.726235 5.48473
RightToes  -3.31784e-009 0 -3.6325e-017
Spine  13.9086 -2.93084 10.7382
Spine1  3.2656 -0.815799 -1.1528
HEad  -18.7903 47.6387 -29.7954
LeftShoulder1  1.90551 -1.64813 -30.9479
LeftArm  40.0539 -18.5383 -52.6447
LeftForeArm  -1.65544 -21.2114 -6.38004
LeftHand  -0.0253602 -2.19486 0.572617
RightShoulder  8.75696 13.0828 46.1847
RightArm  19.5663 -1.31622 18.8783
RightForeArm  12.471 5.26692 16.4916
RightHand  0.379729 5.14912 3.86698
LeftUpLeg  1.75401 -0.884724 9.85986
LeftLeg  49.1694 -6.89013 -8.05549
LeftFoot  -6.78248 0.510092 -11.7644
LeftToes  1.0277e-010 -6.71454e-011 3.04227e-011
2529
root  59.5385 37.7115 -16.5285 174.411 -16.0568 -168.592
RightUpLeg  -19.1635 -5.41885 7.1859
RightLeg  19.9065 -9.05684 2.07849
RightFoot  0.467427 -0.484321 4.71048
RightToes  -3.31784e-009 0 -3.6325e-017
Spine  13.7896 -2.93641 11.3266
Spine1  4.59843 -1.03691 1.04738
HEad  -18.9324 49.9732 -28.7102
LeftShoulder1  1.83656 -1.64297 -29.6289
LeftArm  26.609 -19.2366 -52.2511
LeftForeArm  6.44383 -13.0015 -13.2905
LeftHand  -0.0752642 -0.509083 1.54715
RightShoulder  9.20104 13.7591 46.6323
RightArm  16.4248 -0.662574 18.3424
RightForeArm  14.3661 4.29968 16.5073
RightHand  0.397253 5.18936 4.04153
LeftUpLeg  -5.73786 -1.97271 12.2488
LeftLeg  58.8827 -4.89063 -8.17764
LeftFoot  8.18826 2.44732 -14.449
LeftToes  1.0277e-010 -6.71454e-011 3.04227e-011
2530
root  59.6869 37.7834 -17.6315 174.027 -19.2589 -168.388
RightUpLeg  -17.961 -5.93607 6.92562
RightLeg  21.7054 -11.3071 1.60788
RightFoot  -2.77043 -0.4001 5.08292
RightToes  -3.31784e-009 0 -3.6325e-017
Spine  14.082 -2.74519 12.1933
Spine1  4.51132 -0.670682 1.55266
HEad  -16.8158 51.0785 -25.5128
LeftShoulder1  1.8075 -1.59601 -29.3829
LeftArm  20.3163 -19.4931 -50.1858
LeftForeArm  8.56585 -6.87159 -16.689
LeftHand  -0.0634551 1.28828 1.6232
RightShoulder  9.26163 13.7599 46.945
RightArm  15.1498 -0.166555 18.0423
RightForeArm  14.9341 3.91226 16.5069
RightHand  0.344395 4.92962 3.5667
LeftUpLeg  -12.1163 -2.45732 12.9391
LeftLeg  65.1311 -2.66354 -5.63708
LeftFoot  12.0618 2.52731 -12.5209
LeftToes  1.0277e-010 -6.71454e-011 3.04227e-011
2531
root  59.7683 38.1382 -18.8823 174.014 -21.5207 -169.336
RightUpLeg  -14.9914 -5.71667 6.02335
RightLeg  20.5949 -12.971 1.37727
RightFoot  -4.80355 -0.363963 5.79373
RightToes  -3.31784e-009 0 -3.6325e-017
Spine  14.1887 -2.15939 12.2054
Spine1  4.08872 0.121226 0.366579
HEad  -15.351 51.7406 -23.4895
LeftShoulder1  1.75723 -1.39786 -29.7948
LeftArm  19.1594 -17.9229 -46.3182
LeftForeArm  6.37384 -5.31485 -17.5098
LeftHand  -0.0202746 1.68884 0.354511
RightShoulder  9.10087 13.5314 46.746
RightArm  13.4021 0.578163 18.4755
RightForeArm  16.1658 3.28446 16.4813
RightHand  0.30939 4.76425 3.23614
LeftUpLeg  -17.0935 -1.60759 11.8017
LeftLeg  68.05 -1.00974 -2.0344
LeftFoot  7.34751 1.53251 -9.5697
LeftToes  1.0277e-010 -6.71454e-011 3.04227e-011
2532
root  59.7778 38.4854 -20.1548 174.266 -23.5346 -170.792
RightUpLeg  -11.8055 -6.39689 4.99693
RightLeg  19.0068 -13.8105 1.19655
RightFoot  -6.45518 -0.302843 6.06169
RightToes  -3.31784e-009 0 -3.6325e-017
Spine  13.8034 -1.55095 11.8808
Spine1  4.17087 0.835628 -0.968209
HEad  -15.0017 52.1228 -23.2576
LeftShoulder1  1.73448 -1.26296 -30.3379
LeftArm  17.6447 -15.1886 -41.4868
LeftForeArm  5.23055 -5.06918 -17.6491
LeftHand  0.0384107 1.13157 -1.23281
RightShoulder  9.16342 13.8229 46.2595
RightArm  13.519 0.965983 18.7647
RightForeArm  15.2419 3.81473 16.3555
RightHand  0.301691 4.74775 3.15449
LeftUpLeg  -20.8202 -0.82018 9.52465
LeftLeg  67.4111 -0.498623 -0.603693
LeftFoot  5.71981 1.16467 -7.98847
LeftToes  1.0277e-010 -6.71454e-011 3.04227e-011
2533
root  59.7263 38.7761 -21.4275 175.03 -25.0195 -172.304
RightUpLeg  -8.97317 -7.08613 4.05305
RightLeg  17.1468 -14.0778 1.2937
RightFoot  -7.92868 -0.241744 6.29716
RightToes  -3.31784e-009 0 -3.6325e-017
Spine  12.9546 -0.726954 11.7441
Spine1  4.16984 1.74105 -2.62036
HEad  -14.6954 52.3509 -23.3631
LeftShoulder1  1.67876 -1.07629 -30.605
LeftArm  19.2868 -11.952 -36.8942
LeftForeArm  2.33042 -5.90494 -17.6204
LeftHand  0.0736842 1.04623 -2.15124
RightShoulder  9.1377 14.0572 45.4866
RightArm  15.3365 0.981409 19.148
RightForeArm  13.454 5.46585 15.962
RightHand  0.330607 4.79735 3.46475
LeftUpLeg  -23.8136 0.284403 6.8431
LeftLeg  64.0612 -0.996847 -1.61498
LeftFoot  3.18059 0.916314 -7.33758
LeftToes  1.0277e-010 -6.71454e-011 3.04227e-011
2534
root  59.6486 39.0486 -22.6901 175.93 -26.2406 -173.818
RightUpLeg  -6.0455 -7.38961 3.19332
RightLeg  14.7991 -15.202 1.28721
RightFoot  -8.87523 -0.203808 6.65594
RightToes  -3.31784e-009 0 -3.6325e-017
Spine  12.1607 0.238681 11.2923
Spine1  3.97714 2.69439 -4.20137
HEad  -14.317 52.0818 -23.6482
LeftShoulder1  1.58504 -0.827152 -30.546
LeftArm  22.1271 -8.48837 -32.8773
LeftForeArm  -0.816436 -7.16014 -17.4332
LeftHand  0.0764206 1.07839 -2.24719
RightShoulder  9.0211 14.1346 44.6754
RightArm  19.8194 0.750718 19.2816
RightForeArm  10.2089 8.50788 15.0332
RightHand  0.338679 4.8964 3.51599
LeftUpLeg  -25.6622 1.9186 3.97323
LeftLeg  57.9515 -2.38534 -3.59994
LeftFoot  0.212844 0.692291 -6.85159
LeftToes  1.0277e-010 -6.71454e-011 3.04227e-011
